<?xml version="1.0" encoding="UTF-8"?>
<svg width="186px" height="91px" viewBox="0 0 186 91" version="1.1" xmlns="http://www.w3.org/2000/svg" xmlns:xlink="http://www.w3.org/1999/xlink">
    <title>volcano logo</title>
    <g id="Page-1" stroke="none" stroke-width="1" fill="none" fill-rule="evenodd">
        <g id="Extra-Large" transform="translate(-68.000000, -72.000000)" fill-rule="nonzero">
            <g id="volcano-logo" transform="translate(68.000000, 72.000000)">
                <path d="M168.183673,49.8285714 L148.989796,49.8285714 L144.581633,64 L132,64 L152.755102,0 L165.336735,0 L186,64 L172.77551,64 L168.183673,49.8285714 Z M151.928571,39.7714286 L165.704082,39.7714286 L159.183673,18.3771429 L158.357143,18.3771429 L151.928571,39.7714286 Z" id="a" fill="#606060"></path>
                <polygon id="v" fill="#606060" points="116.556701 46.9028571 117.020619 46.9028571 129.824742 0 143 0 123.515464 64 109.041237 64 89 0 103.195876 0"></polygon>
                <path d="M81.1836735,49.8285714 L61.9897959,49.8285714 L57.5816327,64 L45,64 L65.755102,0 L78.3367347,0 L99,64 L85.7755102,64 L81.1836735,49.8285714 Z M64.9285714,39.7714286 L78.7040816,39.7714286 L72.1836735,18.3771429 L71.3571429,18.3771429 L64.9285714,39.7714286 Z" id="a" fill="#606060"></path>
                <g id="l" transform="translate(0.000000, 0.000000)">
                    <polygon id="lambda-left-triangle" fill="#FF5E0A" points="23.9262864 64 4.25748194e-14 63.9958742 11.9631432 24.384"></polygon>
                    <polygon id="lambda-right-leg" fill="#606060" points="44 63.9968856 29.0738432 63.9968856 9.72295907 0 23.8207743 0"></polygon>
                </g>
                <g id="Visual-Machines" transform="translate(1.000000, 70.000000)" fill="#606060">
                    <polygon id="Path" points="11.4673209 20.7417476 18.0181462 1.12815534 13.5743905 1.12815534 9.11712794 16.5145631 9.02257995 16.5145631 4.5653174 1.12815534 0 1.12815534 6.55082526 20.7417476"></polygon>
                    <path d="M18.1288518,20.7417476 L22.0728538,20.7417476 L22.0728538,5.77669903 L18.1288518,5.77669903 L18.1288518,20.7417476 Z M20.1008528,4.14563107 C21.2759493,4.14563107 22.2349361,3.24854369 22.2349361,2.06601942 C22.2349361,0.883495146 21.2759493,0 20.1008528,0 C18.9392632,0 17.9802764,0.883495146 17.9802764,2.06601942 C17.9802764,3.24854369 18.9392632,4.14563107 20.1008528,4.14563107 Z" id="Shape"></path>
                    <path d="M22.8994229,10.1805825 C22.8994229,12.368932 24.3446565,13.823301 27.1405757,14.4621359 L29.8824675,15.0873786 C31.2331531,15.4135922 31.7464137,15.8213592 31.7464137,16.5961165 C31.7464137,17.5747573 30.7874269,18.1864078 29.2206316,18.1864078 C27.586302,18.1864078 26.5732877,17.4796117 26.3841918,16.215534 L22.5347377,16.215534 C22.7373406,19.0970874 25.1955884,21 29.1125767,21 C33.0025513,21 35.663402,19.0834951 35.663402,16.1747573 C35.663402,13.9456311 34.4747986,12.7902913 31.4897834,12.1106796 L28.6938642,11.4990291 C27.3566854,11.1864078 26.7083563,10.6834951 26.7083563,9.93592233 C26.7083563,8.97087379 27.6538362,8.33203883 29.0720561,8.33203883 C30.584824,8.33203883 31.5708245,9.07961165 31.6518657,10.2621359 L35.2987169,10.2621359 C35.2446894,7.40776699 32.7999485,5.5184466 29.1260836,5.5184466 C25.3576707,5.5184466 22.8994229,7.36699029 22.8994229,10.1805825 Z" id="Path"></path>
                    <path d="M49.6861695,5.77669903 L45.7421675,5.77669903 L45.7421675,14.2990291 C45.7421675,16.3242718 44.5940847,17.6563107 42.7571523,17.6563107 C40.9337267,17.6563107 39.9342193,16.568932 39.9342193,14.5436893 L39.9342193,5.77669903 L35.9902173,5.77669903 L35.9902173,15.3728155 C35.9902173,18.8524272 38.1107937,20.9592233 41.3254255,20.9592233 C43.5810705,20.9592233 45.039811,19.9126214 45.7961949,18.0368932 L45.8772361,18.0368932 L45.8772361,20.7417476 L49.6861695,20.7417476 L49.6861695,5.77669903 Z" id="Path"></path>
                    <path d="M56.388221,18.023301 C54.9564942,18.023301 54.0245211,17.3300971 54.0245211,16.2291262 C54.0245211,15.1281553 54.9024668,14.4757282 56.5503033,14.3669903 L59.670387,14.1495146 L59.670387,15.2504854 C59.670387,16.8815534 58.2116466,18.023301 56.388221,18.023301 Z M55.1050696,20.9184466 C57.0095364,20.9184466 58.8464688,19.9941748 59.6568802,18.431068 L59.7379213,18.431068 L59.7379213,20.7417476 L63.5468548,20.7417476 L63.5468548,10.4796117 C63.5468548,7.48932039 61.0480864,5.5184466 57.2256461,5.5184466 C53.5112606,5.5184466 50.9449579,7.48932039 50.8369031,10.3436893 L54.4432337,10.3436893 C54.6323297,9.25631068 55.631837,8.49514563 57.0635638,8.49514563 C58.6843865,8.49514563 59.670387,9.28349515 59.670387,10.7242718 L59.670387,11.7165049 L55.9560016,11.9475728 C52.160575,12.1786408 50.094026,13.7145631 50.094026,16.4330097 C50.094026,19.1106796 52.2416161,20.9184466 55.1050696,20.9184466 Z" id="Shape"></path>
                    <polygon id="Path" points="64.6435609 20.7417476 68.5875629 20.7417476 68.5875629 0.190291262 64.6435609 0.190291262"></polygon>
                    <polygon id="Path" points="94.9042204 20.7417476 94.9042204 1.12815534 90.1768207 1.12815534 84.6390097 15.0330097 84.5309548 15.0330097 78.9931438 1.12815534 74.2657441 1.12815534 74.2657441 20.7417476 77.8990884 20.7417476 77.8990884 7.50291262 78.0071433 7.50291262 83.3018309 20.5514563 85.8681336 20.5514563 91.1628212 7.50291262 91.2708761 7.50291262 91.2708761 20.7417476"></polygon>
                    <path d="M101.889916,18.023301 C100.458189,18.023301 99.526216,17.3300971 99.526216,16.2291262 C99.526216,15.1281553 100.404162,14.4757282 102.051998,14.3669903 L105.172082,14.1495146 L105.172082,15.2504854 C105.172082,16.8815534 103.713341,18.023301 101.889916,18.023301 Z M100.606765,20.9184466 C102.511231,20.9184466 104.348164,19.9941748 105.158575,18.431068 L105.239616,18.431068 L105.239616,20.7417476 L109.04855,20.7417476 L109.04855,10.4796117 C109.04855,7.48932039 106.549781,5.5184466 102.727341,5.5184466 C99.0129555,5.5184466 96.4466528,7.48932039 96.338598,10.3436893 L99.9449286,10.3436893 C100.134025,9.25631068 101.133532,8.49514563 102.565259,8.49514563 C104.186081,8.49514563 105.172082,9.28349515 105.172082,10.7242718 L105.172082,11.7165049 L101.457696,11.9475728 C97.6622699,12.1786408 95.5957209,13.7145631 95.5957209,16.4330097 C95.5957209,19.1106796 97.743311,20.9184466 100.606765,20.9184466 Z" id="Shape"></path>
                    <path d="M123.476523,11.2951456 C123.287427,7.96504854 120.734631,5.5184466 116.736602,5.5184466 C112.31986,5.5184466 109.48342,8.50873786 109.48342,13.2524272 C109.48342,18.0640777 112.31986,21 116.763615,21 C120.667097,21 123.260413,18.784466 123.49003,15.3048544 L119.816165,15.3048544 C119.559535,16.9495146 118.465479,17.8601942 116.804136,17.8601942 C114.764601,17.8601942 113.481449,16.1747573 113.481449,13.2524272 C113.481449,10.384466 114.764601,8.64466019 116.790629,8.64466019 C118.506,8.64466019 119.586548,9.74563107 119.802658,11.2951456 L123.476523,11.2951456 Z" id="Path"></path>
                    <path d="M123.911393,20.7417476 L127.855395,20.7417476 L127.855395,12.2466019 C127.855395,10.2349515 129.003478,8.86213592 130.948465,8.86213592 C132.825918,8.86213592 133.798412,10.0446602 133.798412,12.0019417 L133.798412,20.7417476 L137.742414,20.7417476 L137.742414,11.1728155 C137.742414,7.70679612 135.837947,5.5592233 132.542274,5.5592233 C130.273122,5.5592233 128.706327,6.56504854 127.868902,8.45436893 L127.787861,8.45436893 L127.787861,0.190291262 L123.911393,0.190291262 L123.911393,20.7417476 Z" id="Path"></path>
                    <path d="M138.758079,20.7417476 L142.702081,20.7417476 L142.702081,5.77669903 L138.758079,5.77669903 L138.758079,20.7417476 Z M140.73008,4.14563107 C141.905176,4.14563107 142.864163,3.24854369 142.864163,2.06601942 C142.864163,0.883495146 141.905176,0 140.73008,0 C139.56849,0 138.609503,0.883495146 138.609503,2.06601942 C138.609503,3.24854369 139.56849,4.14563107 140.73008,4.14563107 Z" id="Shape"></path>
                    <path d="M143.78528,20.7417476 L147.729282,20.7417476 L147.729282,12.2058252 C147.729282,10.2213592 148.863858,8.86213592 150.754818,8.86213592 C152.618764,8.86213592 153.53723,9.99029126 153.53723,11.9747573 L153.53723,20.7417476 L157.481232,20.7417476 L157.481232,11.1456311 C157.481232,7.65242718 155.617286,5.5592233 152.321613,5.5592233 C150.038955,5.5592233 148.526187,6.56504854 147.675255,8.45436893 L147.594214,8.45436893 L147.594214,5.77669903 L143.78528,5.77669903 L143.78528,20.7417476 Z" id="Path"></path>
                    <path d="M165.061229,8.4815534 C166.884655,8.4815534 168.1543,9.7592233 168.221834,11.7165049 L161.806077,11.7165049 C161.941146,9.8 163.264818,8.4815534 165.061229,8.4815534 Z M168.275861,16.1747573 C167.897669,17.3300971 166.722573,18.0368932 165.236819,18.0368932 C163.156763,18.0368932 161.765557,16.5825243 161.765557,14.4213592 L161.765557,14.176699 L172.030767,14.176699 L172.030767,12.9533981 C172.030767,8.4 169.302382,5.5184466 165.020709,5.5184466 C160.657994,5.5184466 157.875582,8.5631068 157.875582,13.3203883 C157.875582,18.0776699 160.644487,21 165.169284,21 C168.789122,21 171.476986,19.0699029 171.909206,16.1747573 L168.275861,16.1747573 Z" id="Shape"></path>
                    <path d="M172.236021,10.1805825 C172.236021,12.368932 173.681254,13.823301 176.477174,14.4621359 L179.219066,15.0873786 C180.569751,15.4135922 181.083012,15.8213592 181.083012,16.5961165 C181.083012,17.5747573 180.124025,18.1864078 178.55723,18.1864078 C176.9229,18.1864078 175.909886,17.4796117 175.72079,16.215534 L171.871336,16.215534 C172.073939,19.0970874 174.532186,21 178.449175,21 C182.339149,21 185,19.0834951 185,16.1747573 C185,13.9456311 183.811397,12.7902913 180.826381,12.1106796 L178.030462,11.4990291 C176.693283,11.1864078 176.044954,10.6834951 176.044954,9.93592233 C176.044954,8.97087379 176.990434,8.33203883 178.408654,8.33203883 C179.921422,8.33203883 180.907423,9.07961165 180.988464,10.2621359 L184.635315,10.2621359 C184.581287,7.40776699 182.136546,5.5184466 178.462682,5.5184466 C174.694269,5.5184466 172.236021,7.36699029 172.236021,10.1805825 Z" id="Path"></path>
                </g>
            </g>
        </g>
    </g>
</svg>