<?xml version="1.0" encoding="UTF-8"?>
<svg width="848px" height="305px" viewBox="0 0 848 305" version="1.1" xmlns="http://www.w3.org/2000/svg" xmlns:xlink="http://www.w3.org/1999/xlink">
    <title>volcano logo</title>
    <g id="wordmarks" stroke="none" stroke-width="1" fill="none" fill-rule="evenodd">
        <g id="Desktop-HD" transform="translate(-156.000000, -56.000000)" fill-rule="nonzero">
            <g id="volcano-logo" transform="translate(156.000000, 56.000000)">
                <path d="M764.527211,237.464286 L674.60034,237.464286 L653.947279,305 L595,305 L692.241497,0 L751.188776,0 L848,305 L786.040816,305 L764.527211,237.464286 Z M688.369048,189.535714 L752.909864,189.535714 L722.360544,87.5785714 L718.488095,87.5785714 L688.369048,189.535714 Z" id="a" fill="#606060"></path>
                <polygon id="v" fill="#606060" points="516.108247 223.521429 518.281787 223.521429 578.271478 0 640 0 548.71134 305 480.896907 305 387 0 453.510309 0"></polygon>
                <path d="M347.527211,237.464286 L257.60034,237.464286 L236.947279,305 L178,305 L275.241497,0 L334.188776,0 L431,305 L369.040816,305 L347.527211,237.464286 Z M271.369048,189.535714 L335.909864,189.535714 L305.360544,87.5785714 L301.488095,87.5785714 L271.369048,189.535714 Z" id="a" fill="#606060"></path>
                <g id="l">
                    <polygon id="lambda-left-triangle" fill="#FF5E0A" points="82.1975483 305 1.46263641e-13 304.985158 41.0987742 162.487559"></polygon>
                    <polygon id="lambda-right-leg" fill="#606060" points="156 304.985158 88.0688018 304.985158 0 0 64.1612903 0"></polygon>
                </g>
            </g>
        </g>
    </g>
</svg>