<?xml version="1.0" encoding="UTF-8"?>
<svg width="2904px" height="1416px" viewBox="0 0 2904 1416" version="1.1" xmlns="http://www.w3.org/2000/svg" xmlns:xlink="http://www.w3.org/1999/xlink">
    <title>volcano logo</title>
    <g id="Page-1" stroke="none" stroke-width="1" fill="none" fill-rule="evenodd">
        <g id="volcano-logo" fill-rule="nonzero">
            <path d="M2622.03487,778.533541 L2323.6549,778.533541 L2255.12744,999.951338 L2059.53866,999.951338 L2382.18877,0 L2577.77755,0 L2899,999.951338 L2693.41763,999.951338 L2622.03487,778.533541 Z M2369.33987,621.398331 L2583.48817,621.398331 L2482.12464,287.128884 L2469.27574,287.128884 L2369.33987,621.398331 Z" id="a" fill="#606060"></path>
            <polygon id="v" fill="#606060" points="1805.39857 732.82148 1812.53685 732.82148 2009.55329 0 2212.28034 0 1912.47272 999.951338 1689.75849 999.951338 1381.38494 0 1599.81621 0"></polygon>
            <path d="M1261.16719,778.533541 L962.787226,778.533541 L894.25977,999.951338 L698.670989,999.951338 L1021.32109,0 L1216.90988,0 L1538.13233,999.951338 L1332.54996,999.951338 L1261.16719,778.533541 Z M1008.4722,621.398331 L1222.6205,621.398331 L1121.25697,287.128884 L1108.40807,287.128884 L1008.4722,621.398331 Z" id="a" fill="#606060"></path>
            <g id="l" transform="translate(0.000000, 0.000000)">
                <polygon id="lambda-left-triangle" fill="#FF5E0A" points="370.713401 1000 6.59653397e-13 999.935534 185.356701 381"></polygon>
                <polygon id="lambda-right-leg" fill="#606060" points="650.747157 999.951338 419.481583 999.951338 119.659373 0 338.090639 0"></polygon>
            </g>
            <g id="Visual-Machines" transform="translate(14.456049, 1089.109375)" fill="#606060">
                <polygon id="Path" points="179.085938 321.890625 281.390625 17.5078125 211.992188 17.5078125 142.382812 256.289062 140.90625 256.289062 71.296875 17.5078125 0 17.5078125 102.304688 321.890625"></polygon>
                <path d="M283.119523,321.890625 L344.713273,321.890625 L344.713273,89.6484375 L283.119523,89.6484375 L283.119523,321.890625 Z M313.916398,64.3359375 C332.26796,64.3359375 347.244523,50.4140625 347.244523,32.0625 C347.244523,13.7109375 332.26796,0 313.916398,0 C295.775773,0 280.79921,13.7109375 280.79921,32.0625 C280.79921,50.4140625 295.775773,64.3359375 313.916398,64.3359375 Z" id="Shape"></path>
                <path d="M357.621857,157.992188 C357.621857,191.953125 380.19217,214.523438 423.856232,224.4375 L466.676545,234.140625 C487.770295,239.203125 495.78592,245.53125 495.78592,257.554688 C495.78592,272.742188 480.809357,282.234375 456.340607,282.234375 C430.81717,282.234375 414.996857,271.265625 412.043732,251.648438 L351.926545,251.648438 C355.090607,296.367188 393.481232,325.898438 454.653107,325.898438 C515.403108,325.898438 556.957795,296.15625 556.957795,251.015625 C556.957795,216.421875 538.395295,198.492188 491.778107,187.945312 L448.114045,178.453125 C427.231232,173.601562 417.106232,165.796875 417.106232,154.195312 C417.106232,139.21875 431.871857,129.304688 454.020295,129.304688 C477.645295,129.304688 493.043732,140.90625 494.309357,159.257812 L551.262483,159.257812 C550.418733,114.960938 512.239045,85.640625 454.864045,85.640625 C396.012482,85.640625 357.621857,114.328125 357.621857,157.992188 Z" id="Path"></path>
                <path d="M775.952318,89.6484375 L714.358568,89.6484375 L714.358568,221.90625 C714.358568,253.335938 696.42888,274.007812 667.74138,274.007812 C639.264818,274.007812 623.655443,257.132812 623.655443,225.703125 L623.655443,89.6484375 L562.061693,89.6484375 L562.061693,238.570312 C562.061693,292.570312 595.17888,325.265625 645.382005,325.265625 C680.608568,325.265625 703.389818,309.023438 715.202318,279.914062 L716.467943,279.914062 L716.467943,321.890625 L775.952318,321.890625 L775.952318,89.6484375 Z" id="Path"></path>
                <path d="M880.618715,279.703125 C858.25934,279.703125 843.704653,268.945312 843.704653,251.859375 C843.704653,234.773438 857.41559,224.648438 883.149965,222.960938 L931.876528,219.585938 L931.876528,236.671875 C931.876528,261.984375 909.095278,279.703125 880.618715,279.703125 Z M860.579653,324.632812 C890.32184,324.632812 919.00934,310.289062 931.66559,286.03125 L932.931215,286.03125 L932.931215,321.890625 L992.41559,321.890625 L992.41559,162.632812 C992.41559,116.226562 953.392153,85.640625 893.69684,85.640625 C835.689028,85.640625 795.610903,116.226562 793.923403,160.523438 L850.243715,160.523438 C853.19684,143.648438 868.806215,131.835938 891.16559,131.835938 C916.47809,131.835938 931.876528,144.070312 931.876528,166.429688 L931.876528,181.828125 L873.868715,185.414062 C814.595278,189 782.32184,212.835938 782.32184,255.023438 C782.32184,296.578125 815.860903,324.632812 860.579653,324.632812 Z" id="Shape"></path>
                <polygon id="Path" points="1009.54292 321.890625 1071.13667 321.890625 1071.13667 2.953125 1009.54292 2.953125"></polygon>
                <polygon id="Path" points="1482.12572 321.890625 1482.12572 17.5078125 1408.2976 17.5078125 1321.81322 233.296875 1320.12572 233.296875 1233.64135 17.5078125 1159.81322 17.5078125 1159.81322 321.890625 1216.55541 321.890625 1216.55541 116.4375 1218.24291 116.4375 1300.93041 318.9375 1341.00853 318.9375 1423.69603 116.4375 1425.38353 116.4375 1425.38353 321.890625"></polygon>
                <path d="M1591.2218,279.703125 C1568.86243,279.703125 1554.30774,268.945312 1554.30774,251.859375 C1554.30774,234.773438 1568.01868,224.648438 1593.75305,222.960938 L1642.47962,219.585938 L1642.47962,236.671875 C1642.47962,261.984375 1619.69837,279.703125 1591.2218,279.703125 Z M1571.18274,324.632812 C1600.92493,324.632812 1629.61243,310.289062 1642.26868,286.03125 L1643.5343,286.03125 L1643.5343,321.890625 L1703.01868,321.890625 L1703.01868,162.632812 C1703.01868,116.226562 1663.99524,85.640625 1604.29993,85.640625 C1546.29212,85.640625 1506.21399,116.226562 1504.52649,160.523438 L1560.8468,160.523438 C1563.79993,143.648438 1579.4093,131.835938 1601.76868,131.835938 C1627.08118,131.835938 1642.47962,144.070312 1642.47962,166.429688 L1642.47962,181.828125 L1584.4718,185.414062 C1525.19837,189 1492.92493,212.835938 1492.92493,255.023438 C1492.92493,296.578125 1526.46399,324.632812 1571.18274,324.632812 Z" id="Shape"></path>
                <path d="M1928.34133,175.289062 C1925.3882,123.609375 1885.52102,85.640625 1823.08352,85.640625 C1754.10695,85.640625 1709.81008,132.046875 1709.81008,205.664062 C1709.81008,280.335938 1754.10695,325.898438 1823.50539,325.898438 C1884.46633,325.898438 1924.96633,291.515625 1928.55227,237.515625 L1871.17727,237.515625 C1867.16945,263.039062 1850.08352,277.171875 1824.1382,277.171875 C1792.28664,277.171875 1772.24758,251.015625 1772.24758,205.664062 C1772.24758,161.15625 1792.28664,134.15625 1823.92727,134.15625 C1850.71633,134.15625 1867.59133,151.242188 1870.96633,175.289062 L1928.34133,175.289062 Z" id="Path"></path>
                <path d="M1935.13272,321.890625 L1996.72647,321.890625 L1996.72647,190.054688 C1996.72647,158.835938 2014.65616,137.53125 2045.03116,137.53125 C2074.35147,137.53125 2089.53897,155.882812 2089.53897,186.257812 L2089.53897,321.890625 L2151.13272,321.890625 L2151.13272,173.390625 C2151.13272,119.601562 2121.39054,86.2734375 2069.92179,86.2734375 C2034.48429,86.2734375 2010.01554,101.882812 1996.93741,131.203125 L1995.67179,131.203125 L1995.67179,2.953125 L1935.13272,2.953125 L1935.13272,321.890625 Z" id="Path"></path>
                <path d="M2166.99444,321.890625 L2228.58819,321.890625 L2228.58819,89.6484375 L2166.99444,89.6484375 L2166.99444,321.890625 Z M2197.79131,64.3359375 C2216.14287,64.3359375 2231.11944,50.4140625 2231.11944,32.0625 C2231.11944,13.7109375 2216.14287,0 2197.79131,0 C2179.65069,0 2164.67412,13.7109375 2164.67412,32.0625 C2164.67412,50.4140625 2179.65069,64.3359375 2197.79131,64.3359375 Z" id="Shape"></path>
                <path d="M2245.50458,321.890625 L2307.09833,321.890625 L2307.09833,189.421875 C2307.09833,158.625 2324.81708,137.53125 2354.34833,137.53125 C2383.45771,137.53125 2397.80146,155.039062 2397.80146,185.835938 L2397.80146,321.890625 L2459.39521,321.890625 L2459.39521,172.96875 C2459.39521,118.757812 2430.28583,86.2734375 2378.81708,86.2734375 C2343.16865,86.2734375 2319.54365,101.882812 2306.25458,131.203125 L2304.98896,131.203125 L2304.98896,89.6484375 L2245.50458,89.6484375 L2245.50458,321.890625 Z" id="Path"></path>
                <path d="M2577.77254,131.625 C2606.2491,131.625 2626.07723,151.453125 2627.13192,181.828125 L2526.9366,181.828125 C2529.04598,152.085938 2549.71785,131.625 2577.77254,131.625 Z M2627.97567,251.015625 C2622.06942,268.945312 2603.71785,279.914062 2580.51473,279.914062 C2548.03035,279.914062 2526.30379,257.34375 2526.30379,223.804688 L2526.30379,220.007812 L2686.61629,220.007812 L2686.61629,201.023438 C2686.61629,130.359375 2644.00692,85.640625 2577.13973,85.640625 C2509.00692,85.640625 2465.55379,132.890625 2465.55379,206.71875 C2465.55379,280.546875 2508.79598,325.898438 2579.46004,325.898438 C2635.99129,325.898438 2677.96785,295.945312 2684.71785,251.015625 L2627.97567,251.015625 Z" id="Shape"></path>
                <path d="M2689.82175,157.992188 C2689.82175,191.953125 2712.39207,214.523438 2756.05613,224.4375 L2798.87644,234.140625 C2819.97019,239.203125 2827.98582,245.53125 2827.98582,257.554688 C2827.98582,272.742188 2813.00925,282.234375 2788.5405,282.234375 C2763.01707,282.234375 2747.19675,271.265625 2744.24363,251.648438 L2684.12644,251.648438 C2687.2905,296.367188 2725.68113,325.898438 2786.853,325.898438 C2847.603,325.898438 2889.15769,296.15625 2889.15769,251.015625 C2889.15769,216.421875 2870.59519,198.492188 2823.978,187.945312 L2780.31394,178.453125 C2759.43113,173.601562 2749.30613,165.796875 2749.30613,154.195312 C2749.30613,139.21875 2764.07175,129.304688 2786.22019,129.304688 C2809.84519,129.304688 2825.24363,140.90625 2826.50925,159.257812 L2883.46238,159.257812 C2882.61863,114.960938 2844.43894,85.640625 2787.06394,85.640625 C2728.21238,85.640625 2689.82175,114.328125 2689.82175,157.992188 Z" id="Path"></path>
            </g>
        </g>
    </g>
</svg>